<?xml version="1.0" standalone="no"?>
<!DOCTYPE svg PUBLIC "-//W3C//DTD SVG 20010904//EN"
 "http://www.w3.org/TR/2001/REC-SVG-20010904/DTD/svg10.dtd">
<svg version="1.0" xmlns="http://www.w3.org/2000/svg"
 width="2728.000000pt" height="2728.000000pt" viewBox="0 0 2728.000000 2728.000000"
 preserveAspectRatio="xMidYMid meet">

<g transform="translate(0.000000,2728.000000) scale(0.100000,-0.100000)"
fill="#000000" stroke="none">
<path d="M11040 24015 l0 -295 -2205 0 -2205 0 0 -1475 0 -1475 -1475 0 -1475
0 0 -2085 0 -2085 -355 0 -355 0 0 -6815 0 -6815 7335 0 7335 0 0 -305 0 -305
380 0 380 0 0 -685 0 -685 3680 0 3680 0 0 685 0 685 385 0 385 0 0 3560 0
3560 -385 0 -385 0 0 200 0 200 -725 0 -725 0 0 7215 0 7215 -6635 0 -6635 0
0 -295z m10310 -6805 l0 -3560 -1475 0 -1475 0 0 -2085 0 -2085 -1840 0 -1840
0 0 -1780 0 -1780 -3680 0 -3680 0 0 305 0 305 -365 0 -365 0 0 1780 0 1780
1840 0 1840 0 0 1780 0 1780 365 0 365 0 0 1475 0 1475 1475 0 1475 0 0 305 0
305 1840 0 1840 0 0 1780 0 1780 1840 0 1840 0 0 -3560z"/>
</g>
</svg>
